<?xml version="1.0" encoding="utf-8"?>
<!-- Generator: Adobe Illustrator 27.3.0, SVG Export Plug-In . SVG Version: 6.00 Build 0)  -->
<svg version="1.1" id="Calque_1" xmlns="http://www.w3.org/2000/svg" xmlns:xlink="http://www.w3.org/1999/xlink" x="0px" y="0px"
	 viewBox="0 0 1200 600" style="enable-background:new 0 0 1200 600;" xml:space="preserve">
<style type="text/css">
	.st0{fill:#D87111;}
	.st1{stroke:#000000;stroke-miterlimit:10;}
</style>
<rect x="0.13" class="st0" width="150" height="600"/>
<g>
	<g>
		<path d="M235.48,88.23l-14.56,42.83h-9.9l-14.53-42.83h9.17l8.06,25.49c0.14,0.43,0.36,1.24,0.67,2.42
			c0.31,1.18,0.63,2.43,0.95,3.75s0.54,2.41,0.66,3.27c0.12-0.86,0.33-1.94,0.63-3.25c0.3-1.31,0.6-2.55,0.91-3.74
			c0.3-1.18,0.52-2,0.66-2.45l8.12-25.49H235.48z"/>
		<path d="M265.54,131.06h-24.67V88.23h24.67v7.44h-15.59v9.4h14.5v7.44h-14.5v11.04h15.59V131.06z"/>
		<path d="M274.47,131.06V88.23h9.08v42.83H274.47z"/>
		<path d="M294.33,131.06V88.23h9.08v35.33h17.37v7.5H294.33z"/>
		<path d="M328.23,131.06V88.23h9.08v35.33h17.37v7.5H328.23z"/>
		<path d="M386.79,131.06h-24.67V88.23h24.67v7.44h-15.59v9.4h14.5v7.44h-14.5v11.04h15.59V131.06z"/>
		<path d="M218.4,203.06h-9.08v-35.27h-11.63v-7.56h32.34v7.56H218.4V203.06z"/>
		<path d="M261.29,203.06h-24.67v-42.83h24.67v7.44H245.7v9.4h14.5v7.44h-14.5v11.04h15.59V203.06z"/>
		<path d="M288.42,167.17c-1.74,0-3.28,0.34-4.61,1.01c-1.34,0.67-2.46,1.65-3.37,2.92c-0.91,1.27-1.6,2.8-2.07,4.6
			c-0.47,1.8-0.7,3.82-0.7,6.06c0,3.03,0.38,5.61,1.13,7.75c0.75,2.14,1.92,3.77,3.5,4.89c1.58,1.12,3.62,1.68,6.12,1.68
			c1.74,0,3.48-0.19,5.23-0.59c1.75-0.39,3.65-0.95,5.7-1.67v7.62c-1.89,0.78-3.76,1.34-5.6,1.68c-1.84,0.34-3.9,0.51-6.18,0.51
			c-4.41,0-8.04-0.91-10.88-2.74c-2.84-1.83-4.95-4.38-6.31-7.68c-1.37-3.29-2.05-7.13-2.05-11.53c0-3.24,0.44-6.21,1.32-8.91
			s2.17-5.03,3.87-7c1.7-1.97,3.8-3.5,6.3-4.57c2.5-1.07,5.37-1.61,8.61-1.61c2.13,0,4.26,0.27,6.4,0.81
			c2.14,0.54,4.18,1.27,6.14,2.21l-2.93,7.38c-1.6-0.76-3.21-1.43-4.83-1.99C291.57,167.45,289.98,167.17,288.42,167.17z"/>
		<path d="M343.55,203.06h-9.05v-18.49h-16.96v18.49h-9.08v-42.83h9.08v16.79h16.96v-16.79h9.05V203.06z"/>
		<path d="M392.36,203.06h-11.54l-18.63-32.4h-0.26c0.08,1.35,0.15,2.71,0.21,4.07c0.06,1.37,0.12,2.73,0.18,4.09
			c0.06,1.36,0.12,2.72,0.18,4.09v20.16h-8.12v-42.83h11.46l18.6,32.08h0.21c-0.04-1.33-0.09-2.65-0.15-3.96
			c-0.06-1.31-0.11-2.62-0.16-3.93c-0.05-1.31-0.09-2.62-0.13-3.93v-20.27h8.17V203.06z"/>
		<path d="M442.02,181.59c0,3.3-0.41,6.3-1.23,9.01c-0.82,2.71-2.07,5.03-3.74,6.99c-1.67,1.95-3.78,3.45-6.34,4.5
			c-2.56,1.04-5.59,1.57-9.08,1.57c-3.5,0-6.52-0.52-9.08-1.57c-2.56-1.04-4.67-2.54-6.34-4.5c-1.67-1.95-2.92-4.29-3.74-7
			c-0.82-2.71-1.23-5.73-1.23-9.05c0-4.43,0.73-8.3,2.18-11.59c1.45-3.29,3.7-5.84,6.72-7.66c3.03-1.82,6.87-2.72,11.54-2.72
			c4.65,0,8.47,0.91,11.47,2.72c3,1.82,5.22,4.38,6.68,7.68C441.29,173.26,442.02,177.13,442.02,181.59z M410.76,181.59
			c0,2.99,0.38,5.56,1.13,7.72c0.75,2.16,1.93,3.82,3.53,4.98c1.6,1.16,3.67,1.74,6.21,1.74c2.58,0,4.67-0.58,6.27-1.74
			c1.6-1.16,2.77-2.82,3.5-4.98c0.73-2.16,1.1-4.73,1.1-7.72c0-4.49-0.84-8.03-2.52-10.61c-1.68-2.58-4.44-3.87-8.29-3.87
			c-2.56,0-4.64,0.58-6.25,1.74c-1.61,1.16-2.79,2.82-3.54,4.98C411.14,175.99,410.76,178.58,410.76,181.59z"/>
		<path d="M450.9,203.06v-42.83h9.08v35.33h17.37v7.5H450.9z"/>
		<path d="M523.67,181.59c0,3.3-0.41,6.3-1.23,9.01c-0.82,2.71-2.07,5.03-3.74,6.99c-1.67,1.95-3.78,3.45-6.34,4.5
			c-2.56,1.04-5.59,1.57-9.08,1.57c-3.5,0-6.52-0.52-9.08-1.57c-2.56-1.04-4.67-2.54-6.34-4.5c-1.67-1.95-2.92-4.29-3.74-7
			c-0.82-2.71-1.23-5.73-1.23-9.05c0-4.43,0.73-8.3,2.18-11.59c1.45-3.29,3.7-5.84,6.72-7.66c3.03-1.82,6.87-2.72,11.54-2.72
			c4.65,0,8.47,0.91,11.47,2.72c3,1.82,5.22,4.38,6.68,7.68C522.94,173.26,523.67,177.13,523.67,181.59z M492.41,181.59
			c0,2.99,0.38,5.56,1.13,7.72c0.75,2.16,1.93,3.82,3.53,4.98c1.6,1.16,3.67,1.74,6.21,1.74c2.58,0,4.67-0.58,6.27-1.74
			c1.6-1.16,2.77-2.82,3.5-4.98c0.73-2.16,1.1-4.73,1.1-7.72c0-4.49-0.84-8.03-2.52-10.61c-1.68-2.58-4.44-3.87-8.29-3.87
			c-2.56,0-4.64,0.58-6.25,1.74c-1.61,1.16-2.79,2.82-3.54,4.98C492.79,175.99,492.41,178.58,492.41,181.59z"/>
		<path d="M548.81,179.01h16.99v22.21c-2.25,0.74-4.58,1.33-7,1.77c-2.42,0.44-5.17,0.66-8.23,0.66c-4.26,0-7.87-0.84-10.84-2.52
			c-2.97-1.68-5.23-4.16-6.77-7.44c-1.54-3.28-2.31-7.31-2.31-12.1c0-4.49,0.86-8.38,2.59-11.66s4.26-5.82,7.59-7.62
			c3.33-1.8,7.4-2.7,12.2-2.7c2.27,0,4.5,0.24,6.71,0.73c2.21,0.49,4.21,1.12,6.01,1.9l-3.02,7.27c-1.31-0.66-2.8-1.22-4.48-1.67
			c-1.68-0.45-3.44-0.67-5.27-0.67c-2.64,0-4.93,0.61-6.87,1.82c-1.94,1.21-3.45,2.91-4.51,5.08c-1.06,2.18-1.6,4.74-1.6,7.69
			c0,2.79,0.38,5.27,1.14,7.43c0.76,2.16,1.96,3.85,3.6,5.07c1.64,1.22,3.78,1.83,6.42,1.83c1.29,0,2.38-0.06,3.27-0.19
			c0.89-0.13,1.72-0.26,2.5-0.4v-8.94h-8.12V179.01z"/>
		<path d="M575.99,203.06v-42.83h9.08v42.83H575.99z"/>
		<path d="M634.74,181.59c0,3.18-0.38,6.1-1.13,8.75c-0.75,2.65-1.91,4.94-3.47,6.87s-3.54,3.45-5.95,4.54l10.31,11.51h-11.63
			l-7.85-9.61c-0.14,0-0.25,0-0.35,0s-0.21,0-0.32,0c-3.5,0-6.52-0.52-9.08-1.57s-4.67-2.54-6.34-4.5c-1.67-1.95-2.91-4.29-3.73-7
			c-0.82-2.71-1.23-5.73-1.23-9.05c0-4.43,0.73-8.3,2.18-11.59c1.46-3.29,3.7-5.84,6.73-7.66c3.03-1.82,6.88-2.72,11.54-2.72
			c4.65,0,8.47,0.91,11.47,2.72s5.22,4.38,6.68,7.68C634.01,173.26,634.74,177.13,634.74,181.59z M603.48,181.59
			c0,2.99,0.38,5.56,1.13,7.72c0.75,2.16,1.93,3.82,3.53,4.98c1.6,1.16,3.67,1.74,6.21,1.74c2.58,0,4.67-0.58,6.27-1.74
			c1.6-1.16,2.77-2.82,3.5-4.98c0.73-2.16,1.1-4.73,1.1-7.72c0-4.49-0.84-8.03-2.52-10.61s-4.44-3.87-8.29-3.87
			c-2.56,0-4.64,0.58-6.26,1.74c-1.61,1.16-2.79,2.82-3.54,4.98C603.85,175.99,603.48,178.58,603.48,181.59z"/>
		<path d="M678.48,160.23v27.71c0,2.95-0.65,5.61-1.95,7.98s-3.26,4.25-5.89,5.64c-2.63,1.39-5.93,2.08-9.92,2.08
			c-5.66,0-9.98-1.45-12.95-4.34c-2.97-2.89-4.45-6.72-4.45-11.48v-27.6h9.05v26.22c0,3.54,0.72,6.02,2.17,7.44
			c1.45,1.43,3.58,2.14,6.42,2.14c1.99,0,3.61-0.34,4.85-1.03c1.24-0.68,2.15-1.74,2.74-3.16c0.59-1.43,0.88-3.24,0.88-5.45v-26.16
			H678.48z"/>
		<path d="M713.63,203.06h-24.67v-42.83h24.67v7.44h-15.59v9.4h14.5v7.44h-14.5v11.04h15.59V203.06z"/>
	</g>
</g>
<g>
	<g>
		<path d="M206.72,257.82v-34.27h3.98v30.7h15.21v3.56H206.72z"/>
		<path d="M240.8,231.71c3.06,0,5.34,0.69,6.82,2.06s2.23,3.57,2.23,6.59v17.46h-2.84l-0.75-3.8h-0.19
			c-0.72,0.94-1.47,1.72-2.25,2.36s-1.68,1.11-2.71,1.43s-2.28,0.48-3.76,0.48c-1.56,0-2.95-0.27-4.16-0.82s-2.16-1.38-2.86-2.48
			s-1.04-2.52-1.04-4.22c0-2.56,1.02-4.53,3.05-5.91s5.12-2.12,9.28-2.25l4.43-0.19v-1.57c0-2.22-0.48-3.77-1.43-4.66
			s-2.3-1.34-4.03-1.34c-1.34,0-2.62,0.2-3.84,0.59s-2.38,0.85-3.47,1.38l-1.2-2.95c1.16-0.59,2.48-1.1,3.98-1.52
			S239.15,231.71,240.8,231.71z M246.01,245.17l-3.91,0.16c-3.2,0.12-5.46,0.65-6.77,1.57s-1.97,2.23-1.97,3.91
			c0,1.47,0.45,2.55,1.34,3.26s2.07,1.05,3.54,1.05c2.28,0,4.15-0.63,5.6-1.9s2.18-3.16,2.18-5.7V245.17z"/>
		<path d="M279.43,236.87c2.33,0,4.35,0.39,6.07,1.18s3.05,1.93,4,3.43s1.42,3.32,1.42,5.46c0,2.34-0.51,4.36-1.52,6.06
			s-2.48,3-4.38,3.91s-4.19,1.37-6.84,1.37c-1.78,0-3.44-0.16-4.97-0.47s-2.82-0.78-3.87-1.41v-3.7c1.14,0.69,2.52,1.23,4.15,1.64
			s3.2,0.61,4.73,0.61c1.73,0,3.25-0.28,4.56-0.83s2.32-1.4,3.05-2.53s1.09-2.56,1.09-4.28c0-2.28-0.7-4.04-2.1-5.29
			s-3.61-1.86-6.62-1.86c-0.97,0-2.03,0.08-3.19,0.23s-2.11,0.33-2.86,0.52l-1.97-1.29l1.31-16.08h17.04v3.56h-13.71l-0.87,10.34
			c0.59-0.12,1.36-0.25,2.3-0.39S278.24,236.87,279.43,236.87z"/>
		<path d="M313.01,239.87h11.98v16.62c-1.8,0.61-3.64,1.06-5.54,1.36s-4.02,0.45-6.36,0.45c-3.56,0-6.57-0.71-9.01-2.13
			s-4.3-3.45-5.57-6.08s-1.9-5.76-1.9-9.39c0-3.55,0.7-6.64,2.1-9.28s3.42-4.69,6.07-6.15s5.83-2.19,9.55-2.19
			c1.91,0,3.71,0.18,5.43,0.53s3.3,0.85,4.77,1.49l-1.52,3.47c-1.27-0.55-2.66-1.02-4.18-1.41s-3.1-0.59-4.72-0.59
			c-2.8,0-5.19,0.58-7.18,1.73s-3.52,2.79-4.57,4.9s-1.58,4.61-1.58,7.5c0,2.86,0.46,5.35,1.38,7.46s2.36,3.76,4.31,4.93
			s4.47,1.76,7.55,1.76c1.55,0,2.88-0.09,3.98-0.27s2.12-0.39,3.02-0.64v-10.5h-7.99V239.87z"/>
	</g>
</g>
<g>
	<line class="st1" x1="206.41" y1="342.01" x2="646.56" y2="342.01"/>
	<path class="st1" d="M646.56,432.2"/>
	<path class="st1" d="M206.41,432.2"/>
</g>
<line class="st1" x1="206.41" y1="405.67" x2="646.56" y2="405.67"/>
<g>
	<g>
		<path class="st0" d="M220.5,362c2.11,0,3.85,0.26,5.23,0.78s2.41,1.32,3.08,2.38s1.02,2.43,1.02,4.08c0,1.36-0.25,2.49-0.74,3.4
			s-1.14,1.64-1.93,2.21s-1.65,1-2.55,1.3l7.05,11.55h-3.48l-6.29-10.72h-5.34v10.72h-2.99V362H220.5z M220.32,364.58h-3.78v9.86
			h4.08c2.1,0,3.64-0.43,4.63-1.28s1.49-2.12,1.49-3.78c0-1.75-0.52-2.98-1.57-3.71S222.5,364.58,220.32,364.58z"/>
		<path class="st0" d="M251.24,368.43v19.27h-2.39l-0.42-2.71h-0.16c-0.4,0.67-0.91,1.23-1.55,1.69s-1.34,0.8-2.14,1.03
			s-1.63,0.34-2.52,0.34c-1.52,0-2.8-0.25-3.83-0.74s-1.81-1.25-2.33-2.29s-0.78-2.36-0.78-3.97v-12.62h2.95v12.41
			c0,1.61,0.36,2.8,1.09,3.59s1.83,1.19,3.32,1.19c1.43,0,2.57-0.27,3.42-0.81s1.46-1.33,1.84-2.38s0.56-2.33,0.56-3.86v-10.14
			H251.24z"/>
		<path class="st0" d="M260.33,360.35v6.84c0,0.79-0.02,1.55-0.06,2.29s-0.07,1.31-0.1,1.72h0.16c0.53-0.87,1.29-1.6,2.29-2.2
			s2.27-0.9,3.81-0.9c2.41,0,4.34,0.83,5.77,2.5s2.15,4.15,2.15,7.44c0,2.17-0.33,4-0.98,5.48s-1.58,2.61-2.78,3.38
			s-2.61,1.14-4.24,1.14c-1.52,0-2.77-0.28-3.75-0.85s-1.73-1.26-2.26-2.08h-0.23l-0.6,2.58h-2.11v-27.35H260.33z M265.96,370.54
			c-1.39,0-2.5,0.27-3.32,0.82s-1.41,1.37-1.77,2.46s-0.54,2.48-0.54,4.16v0.16c0,2.43,0.4,4.28,1.21,5.56s2.28,1.92,4.41,1.92
			c1.79,0,3.14-0.66,4.03-1.97s1.34-3.19,1.34-5.62c0-2.48-0.44-4.35-1.33-5.61S267.77,370.54,265.96,370.54z"/>
		<path class="st0" d="M288.19,368.08c0.39,0,0.79,0.02,1.21,0.06s0.8,0.1,1.12,0.17l-0.37,2.71c-0.32-0.08-0.67-0.15-1.05-0.19
			s-0.75-0.07-1.09-0.07c-0.77,0-1.5,0.16-2.19,0.47s-1.29,0.76-1.8,1.34s-0.92,1.28-1.21,2.09s-0.44,1.72-0.44,2.72v10.34h-2.94
			v-19.27h2.43l0.32,3.55h0.12c0.4-0.71,0.88-1.37,1.44-1.96s1.22-1.06,1.96-1.42S287.28,368.08,288.19,368.08z"/>
		<path class="st0" d="M295.65,361.23c0.48,0,0.89,0.16,1.24,0.47s0.52,0.79,0.52,1.45c0,0.64-0.17,1.12-0.52,1.44
			s-0.76,0.47-1.24,0.47c-0.5,0-0.92-0.16-1.26-0.47s-0.5-0.8-0.5-1.44c0-0.66,0.17-1.14,0.5-1.45S295.14,361.23,295.65,361.23z
			 M297.07,368.43v19.27h-2.92v-19.27H297.07z"/>
		<path class="st0" d="M316.16,396.31v-8.26c0-0.46,0.01-0.98,0.04-1.58s0.06-1.11,0.12-1.55h-0.19c-0.54,0.89-1.31,1.63-2.3,2.23
			s-2.28,0.9-3.85,0.9c-2.36,0-4.25-0.83-5.68-2.5s-2.14-4.15-2.14-7.45c0-2.17,0.33-4,0.98-5.48s1.58-2.62,2.79-3.38
			s2.6-1.15,4.21-1.15c1.54,0,2.79,0.3,3.76,0.91s1.73,1.34,2.29,2.21h0.14l0.44-2.76h2.32v27.88H316.16z M310.52,385.63
			c1.36,0,2.45-0.25,3.27-0.76s1.42-1.28,1.8-2.31s0.58-2.31,0.61-3.85v-0.62c0-2.48-0.42-4.37-1.27-5.65s-2.31-1.92-4.41-1.92
			c-1.8,0-3.15,0.69-4.03,2.07s-1.32,3.24-1.32,5.6s0.44,4.19,1.32,5.49S308.71,385.63,310.52,385.63z"/>
		<path class="st0" d="M341.17,368.43v19.27h-2.39l-0.42-2.71h-0.16c-0.4,0.67-0.91,1.23-1.55,1.69s-1.34,0.8-2.14,1.03
			s-1.63,0.34-2.52,0.34c-1.52,0-2.8-0.25-3.83-0.74s-1.81-1.25-2.33-2.29s-0.78-2.36-0.78-3.97v-12.62h2.95v12.41
			c0,1.61,0.36,2.8,1.09,3.59s1.83,1.19,3.32,1.19c1.43,0,2.57-0.27,3.42-0.81s1.46-1.33,1.84-2.38s0.56-2.33,0.56-3.86v-10.14
			H341.17z"/>
		<path class="st0" d="M354.76,368.08c1.64,0,3.05,0.36,4.22,1.09s2.07,1.74,2.69,3.05s0.93,2.83,0.93,4.58v1.81h-13.31
			c0.04,2.26,0.6,3.98,1.69,5.17s2.62,1.78,4.61,1.78c1.22,0,2.3-0.11,3.23-0.33s1.91-0.55,2.92-0.98v2.57
			c-0.97,0.43-1.94,0.75-2.89,0.95s-2.08,0.3-3.38,0.3c-1.85,0-3.47-0.38-4.84-1.13s-2.45-1.87-3.21-3.33s-1.14-3.26-1.14-5.38
			c0-2.07,0.35-3.87,1.05-5.39s1.68-2.69,2.95-3.51S353.04,368.08,354.76,368.08z M354.73,370.47c-1.56,0-2.8,0.51-3.73,1.53
			s-1.48,2.44-1.65,4.27h10.2c-0.01-1.15-0.19-2.16-0.54-3.03s-0.87-1.55-1.57-2.04S355.83,370.47,354.73,370.47z"/>
	</g>
</g>
<rect x="1105.05" y="536.72" class="st0" width="94.95" height="35.62"/>
</svg>
