<?xml version="1.0" encoding="utf-8"?>
<!-- Generator: Adobe Illustrator 27.3.0, SVG Export Plug-In . SVG Version: 6.00 Build 0)  -->
<svg version="1.1" id="Calque_1" xmlns="http://www.w3.org/2000/svg" xmlns:xlink="http://www.w3.org/1999/xlink" x="0px" y="0px"
	 viewBox="0 0 1200 600" style="enable-background:new 0 0 1200 600;" xml:space="preserve">
<style type="text/css">
	.st0{fill:#D87111;}
	.st1{stroke:#000000;stroke-miterlimit:10;}
</style>
<rect x="0.13" class="st0" width="150" height="600"/>
<g>
	<g>
		<path d="M226.54,131.06h-24.67V88.23h24.67v7.44h-15.59v9.4h14.5v7.44h-14.5v11.04h15.59V131.06z M226.04,75.02v0.62
			c-0.57,0.55-1.31,1.22-2.23,2.02c-0.92,0.8-1.9,1.64-2.96,2.5c-1.05,0.87-2.09,1.7-3.11,2.49c-1.02,0.79-1.9,1.45-2.67,1.98h-5.95
			v-0.79c0.64-0.74,1.39-1.63,2.24-2.65s1.69-2.08,2.53-3.18c0.84-1.09,1.54-2.09,2.11-2.99H226.04z"/>
		<path d="M249.16,88.23c5.53,0,9.56,1.19,12.1,3.56c2.54,2.37,3.81,5.64,3.81,9.8c0,1.88-0.28,3.67-0.85,5.38
			c-0.57,1.71-1.49,3.23-2.77,4.56c-1.28,1.33-2.98,2.38-5.11,3.15c-2.13,0.77-4.76,1.16-7.88,1.16h-3.9v15.23h-9.08V88.23H249.16z
			 M248.69,95.67h-4.13v12.71h2.99c1.7,0,3.17-0.22,4.42-0.67c1.25-0.45,2.22-1.15,2.9-2.11c0.68-0.96,1.03-2.19,1.03-3.69
			c0-2.11-0.59-3.68-1.76-4.7S251.15,95.67,248.69,95.67z"/>
		<path d="M285.63,88.23c3.89,0,7.09,0.47,9.62,1.41c2.53,0.94,4.41,2.35,5.64,4.25c1.23,1.89,1.85,4.29,1.85,7.18
			c0,1.95-0.37,3.66-1.11,5.13c-0.74,1.46-1.72,2.71-2.93,3.72c-1.21,1.02-2.52,1.85-3.93,2.49l12.6,18.66h-10.08l-10.22-16.44
			h-4.83v16.44h-9.08V88.23H285.63z M284.99,95.67h-2.75v11.57h2.93c3.01,0,5.16-0.5,6.46-1.51c1.3-1.01,1.95-2.49,1.95-4.44
			c0-2.03-0.7-3.48-2.09-4.34C290.08,96.1,287.92,95.67,284.99,95.67z"/>
		<path d="M337.43,131.06h-24.67V88.23h24.67v7.44h-15.59v9.4h14.5v7.44h-14.5v11.04h15.59V131.06z"/>
		<path d="M381.23,88.23v27.71c0,2.95-0.65,5.61-1.95,7.98c-1.3,2.37-3.26,4.25-5.89,5.64c-2.63,1.39-5.93,2.08-9.92,2.08
			c-5.66,0-9.98-1.45-12.95-4.34c-2.97-2.89-4.45-6.72-4.45-11.48v-27.6h9.05v26.22c0,3.54,0.72,6.02,2.17,7.44
			c1.45,1.43,3.58,2.14,6.42,2.14c1.99,0,3.61-0.34,4.85-1.03c1.24-0.68,2.15-1.74,2.74-3.16c0.59-1.43,0.88-3.24,0.88-5.45V88.23
			H381.23z"/>
		<path d="M425.32,88.23l-14.56,42.83h-9.9l-14.53-42.83h9.17l8.06,25.49c0.14,0.43,0.36,1.24,0.67,2.42
			c0.31,1.18,0.63,2.43,0.95,3.75s0.54,2.41,0.66,3.27c0.12-0.86,0.33-1.94,0.63-3.25c0.3-1.31,0.6-2.55,0.91-3.74
			c0.3-1.18,0.52-2,0.66-2.45l8.12-25.49H425.32z"/>
		<path d="M455.38,131.06h-24.67V88.23h24.67v7.44h-15.59v9.4h14.5v7.44h-14.5v11.04h15.59V131.06z"/>
		<path d="M504.57,131.06H479.9V88.23h24.67v7.44h-15.59v9.4h14.5v7.44h-14.5v11.04h15.59V131.06z"/>
		<path d="M541.42,122.18h-5.16v8.88h-8.85v-8.88h-18.28v-6.3l18.78-27.66h8.35v26.92h5.16V122.18z M527.42,115.15v-7.27
			c0-0.68,0.01-1.49,0.04-2.43s0.06-1.88,0.1-2.81c0.04-0.94,0.08-1.77,0.13-2.5c0.05-0.73,0.08-1.25,0.1-1.54h-0.23
			c-0.37,0.8-0.76,1.58-1.17,2.33c-0.41,0.75-0.89,1.54-1.44,2.36l-7.85,11.87H527.42z"/>
	</g>
</g>
<g>
	<g>
		<path d="M226.06,190.42c0,2.03-0.5,3.76-1.51,5.19s-2.42,2.52-4.23,3.27s-3.95,1.12-6.4,1.12c-1.3,0-2.52-0.06-3.68-0.19
			s-2.22-0.3-3.19-0.54s-1.82-0.52-2.55-0.87v-3.82c1.17,0.48,2.6,0.93,4.29,1.35s3.45,0.62,5.3,0.62c1.72,0,3.17-0.23,4.36-0.69
			s2.09-1.12,2.71-1.99s0.93-1.91,0.93-3.13c0-1.17-0.26-2.15-0.77-2.94s-1.37-1.51-2.57-2.16s-2.82-1.34-4.89-2.07
			c-1.45-0.52-2.73-1.08-3.84-1.7s-2.04-1.32-2.79-2.1s-1.32-1.69-1.7-2.72s-0.57-2.21-0.57-3.54c0-1.83,0.46-3.39,1.39-4.7
			s2.22-2.3,3.87-3s3.54-1.04,5.68-1.04c1.83,0,3.52,0.17,5.07,0.52s2.98,0.8,4.28,1.38L224,170.1c-1.23-0.52-2.54-0.95-3.93-1.29
			s-2.81-0.52-4.28-0.52s-2.71,0.21-3.71,0.64s-1.78,1.04-2.31,1.82s-0.8,1.71-0.8,2.79c0,1.2,0.25,2.2,0.76,3s1.32,1.5,2.44,2.12
			s2.6,1.26,4.44,1.93c2.02,0.73,3.73,1.51,5.13,2.33s2.48,1.82,3.21,3S226.06,188.61,226.06,190.42z"/>
		<path d="M253.67,173.85v25.69h-3.19l-0.56-3.61h-0.21c-0.53,0.89-1.22,1.64-2.06,2.25s-1.79,1.07-2.85,1.37s-2.18,0.46-3.36,0.46
			c-2.03,0-3.73-0.33-5.11-0.98s-2.41-1.67-3.11-3.05s-1.04-3.14-1.04-5.3v-16.83h3.94v16.55c0,2.14,0.48,3.74,1.45,4.79
			s2.45,1.58,4.43,1.58c1.91,0,3.43-0.36,4.56-1.08s1.95-1.78,2.45-3.18s0.75-3.11,0.75-5.14v-13.52H253.67z"/>
		<path d="M273.97,173.39c3.2,0,5.76,1.1,7.66,3.3s2.86,5.52,2.86,9.94c0,2.92-0.44,5.38-1.31,7.36s-2.11,3.48-3.69,4.5
			s-3.46,1.52-5.61,1.52c-1.36,0-2.55-0.18-3.59-0.54s-1.91-0.84-2.65-1.45s-1.34-1.27-1.83-1.99h-0.28
			c0.05,0.61,0.11,1.34,0.18,2.2s0.11,1.61,0.11,2.25v10.55h-3.91v-37.17h3.21l0.52,3.8h0.19c0.5-0.78,1.11-1.5,1.83-2.14
			s1.6-1.16,2.64-1.55S272.54,173.39,273.97,173.39z M273.29,176.67c-1.78,0-3.21,0.34-4.3,1.03s-1.88,1.71-2.38,3.08
			s-0.77,3.08-0.8,5.14v0.75c0,2.17,0.24,4.01,0.71,5.51s1.27,2.64,2.37,3.42s2.58,1.17,4.44,1.17c1.59,0,2.92-0.43,3.98-1.29
			s1.86-2.06,2.38-3.6s0.79-3.31,0.79-5.31c0-3.03-0.59-5.44-1.77-7.23S275.72,176.67,273.29,176.67z"/>
		<path d="M303.33,173.39c3.2,0,5.76,1.1,7.66,3.3s2.86,5.52,2.86,9.94c0,2.92-0.44,5.38-1.31,7.36s-2.11,3.48-3.69,4.5
			s-3.46,1.52-5.61,1.52c-1.36,0-2.55-0.18-3.59-0.54s-1.91-0.84-2.65-1.45s-1.34-1.27-1.83-1.99h-0.28
			c0.05,0.61,0.11,1.34,0.18,2.2s0.11,1.61,0.11,2.25v10.55h-3.91v-37.17h3.21l0.52,3.8h0.19c0.5-0.78,1.11-1.5,1.83-2.14
			s1.6-1.16,2.64-1.55S301.91,173.39,303.33,173.39z M302.65,176.67c-1.78,0-3.21,0.34-4.3,1.03s-1.88,1.71-2.38,3.08
			s-0.77,3.08-0.8,5.14v0.75c0,2.17,0.24,4.01,0.71,5.51s1.27,2.64,2.37,3.42s2.58,1.17,4.44,1.17c1.59,0,2.92-0.43,3.98-1.29
			s1.86-2.06,2.38-3.6s0.79-3.31,0.79-5.31c0-3.03-0.59-5.44-1.77-7.23S305.09,176.67,302.65,176.67z"/>
		<path d="M342.78,186.65c0,2.11-0.27,3.99-0.82,5.65s-1.34,3.05-2.37,4.2s-2.28,2.01-3.74,2.61s-3.11,0.9-4.96,0.9
			c-1.72,0-3.29-0.3-4.72-0.9s-2.66-1.47-3.7-2.61s-1.84-2.54-2.41-4.2s-0.86-3.54-0.86-5.65c0-2.81,0.48-5.21,1.43-7.18
			s2.32-3.48,4.09-4.52s3.89-1.56,6.34-1.56c2.34,0,4.39,0.52,6.15,1.57s3.12,2.56,4.1,4.54S342.78,183.85,342.78,186.65z
			 M323.23,186.65c0,2.06,0.27,3.85,0.82,5.37s1.39,2.69,2.53,3.52s2.61,1.24,4.41,1.24c1.78,0,3.25-0.41,4.39-1.24s2-2,2.54-3.52
			s0.82-3.3,0.82-5.37c0-2.05-0.27-3.82-0.82-5.31s-1.39-2.64-2.53-3.46s-2.62-1.22-4.43-1.22c-2.67,0-4.63,0.88-5.87,2.65
			S323.23,183.53,323.23,186.65z"/>
		<path d="M361.18,173.39c0.52,0,1.05,0.03,1.62,0.08s1.06,0.13,1.5,0.22l-0.49,3.61c-0.42-0.11-0.89-0.2-1.41-0.26
			s-1-0.09-1.45-0.09c-1.03,0-2,0.21-2.92,0.62s-1.71,1.01-2.4,1.78s-1.23,1.7-1.62,2.79s-0.59,2.29-0.59,3.62v13.78h-3.91v-25.69
			h3.23l0.42,4.73h0.16c0.53-0.95,1.17-1.82,1.92-2.61s1.62-1.42,2.61-1.89S359.96,173.39,361.18,173.39z"/>
		<path d="M377.42,196.82c0.64,0,1.3-0.05,1.97-0.16s1.22-0.24,1.64-0.4v3.02c-0.45,0.2-1.08,0.38-1.89,0.52s-1.59,0.21-2.36,0.21
			c-1.36,0-2.59-0.24-3.7-0.71s-2-1.29-2.66-2.43s-1-2.72-1-4.73V176.9h-3.66V175l3.68-1.52l1.55-5.58h2.34v5.95h7.52v3.05h-7.52
			v15.12c0,1.61,0.37,2.81,1.11,3.61S376.19,196.82,377.42,196.82z"/>
		<path d="M408.59,173.39c2.19,0,4.06,0.48,5.62,1.45s2.76,2.32,3.59,4.07s1.24,3.78,1.24,6.11v2.41H401.3
			c0.05,3.02,0.8,5.31,2.25,6.89s3.5,2.37,6.14,2.37c1.62,0,3.06-0.15,4.31-0.45s2.55-0.73,3.89-1.31v3.42
			c-1.3,0.58-2.58,1-3.86,1.27s-2.78,0.4-4.51,0.4c-2.47,0-4.62-0.5-6.46-1.51s-3.26-2.49-4.28-4.44s-1.52-4.34-1.52-7.17
			c0-2.77,0.46-5.16,1.39-7.18s2.24-3.58,3.94-4.68S406.29,173.39,408.59,173.39z M408.54,176.57c-2.08,0-3.73,0.68-4.97,2.04
			s-1.97,3.26-2.2,5.7h13.59c-0.02-1.53-0.25-2.88-0.71-4.04s-1.16-2.07-2.1-2.72S410.01,176.57,408.54,176.57z"/>
		<path d="M433.95,196.82c0.64,0,1.3-0.05,1.97-0.16s1.22-0.24,1.64-0.4v3.02c-0.45,0.2-1.08,0.38-1.89,0.52s-1.59,0.21-2.36,0.21
			c-1.36,0-2.59-0.24-3.7-0.71s-2-1.29-2.66-2.43s-1-2.72-1-4.73V176.9h-3.66V175l3.68-1.52l1.55-5.58h2.34v5.95h7.52v3.05h-7.52
			v15.12c0,1.61,0.37,2.81,1.11,3.61S432.72,196.82,433.95,196.82z"/>
		<path d="M483.12,173.39c2.83,0,4.96,0.74,6.4,2.21s2.16,3.85,2.16,7.11v16.83h-3.84V182.9c0-2.08-0.45-3.64-1.35-4.68
			s-2.23-1.56-4-1.56c-2.48,0-4.29,0.72-5.41,2.16s-1.69,3.55-1.69,6.35v14.37h-3.87V182.9c0-1.39-0.2-2.55-0.6-3.47
			s-0.99-1.61-1.78-2.07s-1.79-0.69-2.99-0.69c-1.7,0-3.07,0.35-4.1,1.05s-1.78,1.75-2.24,3.13s-0.69,3.08-0.69,5.1v13.59h-3.89
			v-25.69h3.14l0.59,3.63h0.21c0.52-0.89,1.16-1.64,1.95-2.25s1.66-1.07,2.62-1.38s2-0.47,3.09-0.47c1.95,0,3.59,0.36,4.91,1.09
			s2.28,1.83,2.87,3.32h0.21c0.84-1.48,2-2.59,3.47-3.32S481.37,173.39,483.12,173.39z"/>
		<path d="M501.66,164.25c0.64,0,1.19,0.21,1.65,0.62s0.69,1.06,0.69,1.93c0,0.86-0.23,1.5-0.69,1.92s-1.01,0.63-1.65,0.63
			c-0.67,0-1.23-0.21-1.68-0.63s-0.67-1.06-0.67-1.92c0-0.88,0.22-1.52,0.67-1.93S500.99,164.25,501.66,164.25z M503.56,173.85
			v25.69h-3.89v-25.69H503.56z"/>
		<path d="M528.4,192.51c0,1.64-0.41,3.02-1.23,4.14s-1.99,1.96-3.52,2.52s-3.34,0.84-5.45,0.84c-1.8,0-3.35-0.14-4.66-0.42
			s-2.46-0.68-3.45-1.2v-3.59c1.05,0.52,2.3,0.98,3.75,1.41s2.94,0.63,4.45,0.63c2.22,0,3.83-0.36,4.83-1.08s1.5-1.7,1.5-2.93
			c0-0.7-0.2-1.32-0.6-1.86s-1.07-1.06-2-1.57s-2.23-1.07-3.89-1.68c-1.64-0.62-3.06-1.25-4.25-1.86s-2.12-1.37-2.77-2.26
			s-0.97-2.05-0.97-3.47c0-2.17,0.88-3.84,2.64-5s4.07-1.75,6.93-1.75c1.55,0,3,0.15,4.35,0.46s2.61,0.71,3.79,1.23l-1.31,3.12
			c-1.06-0.45-2.2-0.84-3.4-1.15s-2.43-0.47-3.68-0.47c-1.8,0-3.18,0.3-4.14,0.89s-1.44,1.41-1.44,2.44c0,0.8,0.22,1.45,0.67,1.97
			s1.16,1,2.14,1.45s2.28,0.98,3.89,1.59c1.61,0.59,3,1.21,4.17,1.84s2.07,1.4,2.71,2.3S528.4,191.1,528.4,192.51z"/>
		<path d="M544.55,173.39c2.19,0,4.06,0.48,5.62,1.45s2.76,2.32,3.59,4.07s1.24,3.78,1.24,6.11v2.41h-17.74
			c0.05,3.02,0.8,5.31,2.25,6.89s3.5,2.37,6.14,2.37c1.62,0,3.06-0.15,4.31-0.45s2.55-0.73,3.89-1.31v3.42
			c-1.3,0.58-2.58,1-3.86,1.27s-2.78,0.4-4.51,0.4c-2.47,0-4.62-0.5-6.46-1.51s-3.26-2.49-4.28-4.44s-1.52-4.34-1.52-7.17
			c0-2.77,0.46-5.16,1.39-7.18s2.24-3.58,3.94-4.68S542.26,173.39,544.55,173.39z M544.51,176.57c-2.08,0-3.73,0.68-4.97,2.04
			s-1.97,3.26-2.2,5.7h13.59c-0.02-1.53-0.25-2.88-0.71-4.04s-1.16-2.07-2.1-2.72S545.97,176.57,544.51,176.57z"/>
		<path d="M583.69,173.43c3.06,0,5.34,0.69,6.82,2.06s2.23,3.57,2.23,6.59v17.46h-2.84l-0.75-3.8h-0.19
			c-0.72,0.94-1.47,1.72-2.25,2.36s-1.68,1.11-2.71,1.43s-2.28,0.48-3.76,0.48c-1.56,0-2.95-0.27-4.16-0.82s-2.16-1.38-2.86-2.48
			s-1.04-2.52-1.04-4.22c0-2.56,1.02-4.53,3.05-5.91s5.12-2.12,9.28-2.25l4.43-0.19v-1.57c0-2.22-0.48-3.77-1.43-4.66
			s-2.3-1.34-4.03-1.34c-1.34,0-2.62,0.2-3.84,0.59s-2.38,0.85-3.47,1.38l-1.2-2.95c1.16-0.59,2.48-1.1,3.98-1.52
			S582.04,173.43,583.69,173.43z M588.9,186.89l-3.91,0.16c-3.2,0.12-5.46,0.65-6.77,1.57s-1.97,2.23-1.97,3.91
			c0,1.47,0.45,2.55,1.34,3.26s2.07,1.05,3.54,1.05c2.28,0,4.15-0.63,5.6-1.9s2.18-3.16,2.18-5.7V186.89z M581.7,162.77
			c0.38,0.72,0.84,1.52,1.39,2.4s1.14,1.74,1.76,2.58s1.18,1.55,1.7,2.14v0.56h-2.65c-0.56-0.45-1.18-0.99-1.84-1.62
			s-1.32-1.29-1.98-1.98s-1.25-1.36-1.78-1.99s-0.95-1.18-1.24-1.63v-0.47H581.7z"/>
		<path d="M622.37,200.01c-3.25,0-5.82-1.11-7.72-3.33s-2.85-5.52-2.85-9.89c0-4.42,0.97-7.76,2.91-10.02s4.52-3.39,7.73-3.39
			c1.36,0,2.55,0.18,3.56,0.54s1.89,0.84,2.62,1.44s1.35,1.29,1.85,2.05h0.28c-0.06-0.48-0.12-1.15-0.19-1.99s-0.09-1.53-0.09-2.06
			v-10.29h3.89v36.47h-3.14l-0.59-3.66h-0.16c-0.48,0.77-1.1,1.46-1.84,2.09s-1.62,1.12-2.65,1.49S623.76,200.01,622.37,200.01z
			 M622.97,196.78c2.75,0,4.7-0.78,5.84-2.34s1.71-3.88,1.71-6.96v-0.7c0-3.27-0.54-5.77-1.63-7.52s-3.06-2.62-5.92-2.62
			c-2.39,0-4.18,0.92-5.37,2.75s-1.78,4.34-1.78,7.51c0,3.16,0.59,5.59,1.77,7.31S620.57,196.78,622.97,196.78z"/>
		<path d="M644.58,164.25c0.64,0,1.19,0.21,1.65,0.62s0.69,1.06,0.69,1.93c0,0.86-0.23,1.5-0.69,1.92s-1.01,0.63-1.65,0.63
			c-0.67,0-1.23-0.21-1.68-0.63s-0.67-1.06-0.67-1.92c0-0.88,0.22-1.52,0.67-1.93S643.91,164.25,644.58,164.25z M646.48,173.85
			v25.69h-3.89v-25.69H646.48z"/>
		<path d="M671.33,192.51c0,1.64-0.41,3.02-1.23,4.14s-1.99,1.96-3.52,2.52s-3.34,0.84-5.45,0.84c-1.8,0-3.35-0.14-4.66-0.42
			s-2.46-0.68-3.45-1.2v-3.59c1.05,0.52,2.3,0.98,3.75,1.41s2.94,0.63,4.45,0.63c2.22,0,3.83-0.36,4.83-1.08s1.5-1.7,1.5-2.93
			c0-0.7-0.2-1.32-0.6-1.86s-1.07-1.06-2-1.57s-2.23-1.07-3.89-1.68c-1.64-0.62-3.06-1.25-4.25-1.86s-2.12-1.37-2.77-2.26
			s-0.97-2.05-0.97-3.47c0-2.17,0.88-3.84,2.64-5s4.07-1.75,6.93-1.75c1.55,0,3,0.15,4.35,0.46s2.61,0.71,3.79,1.23l-1.31,3.12
			c-1.06-0.45-2.2-0.84-3.4-1.15s-2.43-0.47-3.68-0.47c-1.8,0-3.18,0.3-4.14,0.89s-1.44,1.41-1.44,2.44c0,0.8,0.22,1.45,0.67,1.97
			s1.16,1,2.14,1.45s2.28,0.98,3.89,1.59c1.61,0.59,3,1.21,4.17,1.84s2.07,1.4,2.71,2.3S671.33,191.1,671.33,192.51z"/>
		<path d="M689.65,173.39c3.2,0,5.76,1.1,7.66,3.3s2.86,5.52,2.86,9.94c0,2.92-0.44,5.38-1.31,7.36s-2.11,3.48-3.69,4.5
			s-3.46,1.52-5.61,1.52c-1.36,0-2.55-0.18-3.59-0.54s-1.91-0.84-2.65-1.45s-1.34-1.27-1.83-1.99h-0.28
			c0.05,0.61,0.11,1.34,0.18,2.2s0.11,1.61,0.11,2.25v10.55h-3.91v-37.17h3.21l0.52,3.8h0.19c0.5-0.78,1.11-1.5,1.83-2.14
			s1.6-1.16,2.64-1.55S688.23,173.39,689.65,173.39z M688.97,176.67c-1.78,0-3.21,0.34-4.3,1.03s-1.88,1.71-2.38,3.08
			s-0.77,3.08-0.8,5.14v0.75c0,2.17,0.24,4.01,0.71,5.51s1.27,2.64,2.37,3.42s2.58,1.17,4.44,1.17c1.59,0,2.92-0.43,3.98-1.29
			s1.86-2.06,2.38-3.6s0.79-3.31,0.79-5.31c0-3.03-0.59-5.44-1.77-7.23S691.41,176.67,688.97,176.67z"/>
		<path d="M729.1,186.65c0,2.11-0.27,3.99-0.82,5.65s-1.34,3.05-2.37,4.2s-2.28,2.01-3.74,2.61s-3.11,0.9-4.96,0.9
			c-1.72,0-3.29-0.3-4.72-0.9s-2.66-1.47-3.7-2.61s-1.84-2.54-2.41-4.2s-0.86-3.54-0.86-5.65c0-2.81,0.48-5.21,1.43-7.18
			s2.32-3.48,4.09-4.52s3.89-1.56,6.34-1.56c2.34,0,4.39,0.52,6.15,1.57s3.12,2.56,4.1,4.54S729.1,183.85,729.1,186.65z
			 M709.55,186.65c0,2.06,0.27,3.85,0.82,5.37s1.39,2.69,2.53,3.52s2.61,1.24,4.41,1.24c1.78,0,3.25-0.41,4.39-1.24s2-2,2.54-3.52
			s0.82-3.3,0.82-5.37c0-2.05-0.27-3.82-0.82-5.31s-1.39-2.64-2.53-3.46s-2.62-1.22-4.43-1.22c-2.67,0-4.63,0.88-5.87,2.65
			S709.55,183.53,709.55,186.65z"/>
		<path d="M752.44,192.51c0,1.64-0.41,3.02-1.23,4.14s-1.99,1.96-3.52,2.52s-3.34,0.84-5.45,0.84c-1.8,0-3.35-0.14-4.66-0.42
			s-2.46-0.68-3.45-1.2v-3.59c1.05,0.52,2.3,0.98,3.75,1.41s2.94,0.63,4.45,0.63c2.22,0,3.83-0.36,4.83-1.08s1.5-1.7,1.5-2.93
			c0-0.7-0.2-1.32-0.6-1.86s-1.07-1.06-2-1.57s-2.23-1.07-3.89-1.68c-1.64-0.62-3.06-1.25-4.25-1.86s-2.12-1.37-2.77-2.26
			s-0.97-2.05-0.97-3.47c0-2.17,0.88-3.84,2.64-5s4.07-1.75,6.93-1.75c1.55,0,3,0.15,4.35,0.46s2.61,0.71,3.79,1.23l-1.31,3.12
			c-1.06-0.45-2.2-0.84-3.4-1.15s-2.43-0.47-3.68-0.47c-1.8,0-3.18,0.3-4.14,0.89s-1.44,1.41-1.44,2.44c0,0.8,0.22,1.45,0.67,1.97
			s1.16,1,2.14,1.45s2.28,0.98,3.89,1.59c1.61,0.59,3,1.21,4.17,1.84s2.07,1.4,2.71,2.3S752.44,191.1,752.44,192.51z"/>
		<path d="M760.69,164.25c0.64,0,1.19,0.21,1.65,0.62s0.69,1.06,0.69,1.93c0,0.86-0.23,1.5-0.69,1.92s-1.01,0.63-1.65,0.63
			c-0.67,0-1.23-0.21-1.68-0.63s-0.67-1.06-0.67-1.92c0-0.88,0.22-1.52,0.67-1.93S760.02,164.25,760.69,164.25z M762.59,173.85
			v25.69h-3.89v-25.69H762.59z"/>
		<path d="M779.12,196.82c0.64,0,1.3-0.05,1.97-0.16s1.22-0.24,1.64-0.4v3.02c-0.45,0.2-1.08,0.38-1.89,0.52s-1.59,0.21-2.36,0.21
			c-1.36,0-2.59-0.24-3.7-0.71s-2-1.29-2.66-2.43s-1-2.72-1-4.73V176.9h-3.66V175l3.68-1.52l1.55-5.58h2.34v5.95h7.52v3.05h-7.52
			v15.12c0,1.61,0.37,2.81,1.11,3.61S777.88,196.82,779.12,196.82z"/>
		<path d="M789.92,164.25c0.64,0,1.19,0.21,1.65,0.62s0.69,1.06,0.69,1.93c0,0.86-0.23,1.5-0.69,1.92s-1.01,0.63-1.65,0.63
			c-0.67,0-1.23-0.21-1.68-0.63s-0.67-1.06-0.67-1.92c0-0.88,0.22-1.52,0.67-1.93S789.25,164.25,789.92,164.25z M791.82,173.85
			v25.69h-3.89v-25.69H791.82z"/>
		<path d="M822.19,186.65c0,2.11-0.27,3.99-0.82,5.65s-1.34,3.05-2.37,4.2s-2.28,2.01-3.74,2.61s-3.11,0.9-4.96,0.9
			c-1.72,0-3.29-0.3-4.72-0.9s-2.66-1.47-3.7-2.61s-1.84-2.54-2.41-4.2s-0.86-3.54-0.86-5.65c0-2.81,0.48-5.21,1.43-7.18
			s2.32-3.48,4.09-4.52s3.89-1.56,6.34-1.56c2.34,0,4.39,0.52,6.15,1.57s3.12,2.56,4.1,4.54S822.19,183.85,822.19,186.65z
			 M802.65,186.65c0,2.06,0.27,3.85,0.82,5.37s1.39,2.69,2.53,3.52s2.61,1.24,4.41,1.24c1.78,0,3.25-0.41,4.39-1.24s2-2,2.54-3.52
			s0.82-3.3,0.82-5.37c0-2.05-0.27-3.82-0.82-5.31s-1.39-2.64-2.53-3.46s-2.62-1.22-4.43-1.22c-2.67,0-4.63,0.88-5.87,2.65
			S802.65,183.53,802.65,186.65z"/>
		<path d="M841.08,173.39c3.05,0,5.35,0.75,6.91,2.24s2.34,3.89,2.34,7.18v16.73h-3.84v-16.48c0-2.14-0.49-3.74-1.46-4.8
			s-2.47-1.59-4.49-1.59c-2.84,0-4.84,0.8-6,2.41s-1.73,3.95-1.73,7.01v13.45h-3.89v-25.69h3.14l0.59,3.7h0.21
			c0.55-0.91,1.24-1.67,2.09-2.29s1.79-1.09,2.84-1.41S839.93,173.39,841.08,173.39z"/>
		<path d="M879.97,200.01c-3.25,0-5.82-1.11-7.72-3.33s-2.85-5.52-2.85-9.89c0-4.42,0.97-7.76,2.91-10.02s4.52-3.39,7.73-3.39
			c1.36,0,2.55,0.18,3.56,0.54s1.89,0.84,2.62,1.44s1.35,1.29,1.85,2.05h0.28c-0.06-0.48-0.12-1.15-0.19-1.99s-0.09-1.53-0.09-2.06
			v-10.29h3.89v36.47h-3.14l-0.59-3.66h-0.16c-0.48,0.77-1.1,1.46-1.84,2.09s-1.62,1.12-2.65,1.49S881.36,200.01,879.97,200.01z
			 M880.58,196.78c2.75,0,4.7-0.78,5.84-2.34s1.71-3.88,1.71-6.96v-0.7c0-3.27-0.54-5.77-1.63-7.52s-3.06-2.62-5.92-2.62
			c-2.39,0-4.18,0.92-5.37,2.75s-1.78,4.34-1.78,7.51c0,3.16,0.59,5.59,1.77,7.31S878.17,196.78,880.58,196.78z"/>
		<path d="M910.08,173.39c2.19,0,4.06,0.48,5.62,1.45s2.76,2.32,3.59,4.07s1.24,3.78,1.24,6.11v2.41h-17.74
			c0.05,3.02,0.8,5.31,2.25,6.89s3.5,2.37,6.14,2.37c1.62,0,3.06-0.15,4.31-0.45s2.55-0.73,3.89-1.31v3.42
			c-1.3,0.58-2.58,1-3.86,1.27s-2.78,0.4-4.51,0.4c-2.47,0-4.62-0.5-6.46-1.51s-3.26-2.49-4.28-4.44s-1.52-4.34-1.52-7.17
			c0-2.77,0.46-5.16,1.39-7.18s2.24-3.58,3.94-4.68S907.79,173.39,910.08,173.39z M910.04,176.57c-2.08,0-3.73,0.68-4.97,2.04
			s-1.97,3.26-2.2,5.7h13.59c-0.02-1.53-0.25-2.88-0.71-4.04s-1.16-2.07-2.1-2.72S911.51,176.57,910.04,176.57z"/>
		<path d="M222.76,250.11c0,1.64-0.41,3.02-1.23,4.14s-1.99,1.96-3.52,2.52s-3.34,0.84-5.45,0.84c-1.8,0-3.35-0.14-4.66-0.42
			s-2.46-0.68-3.45-1.2v-3.59c1.05,0.52,2.3,0.98,3.75,1.41s2.94,0.63,4.45,0.63c2.22,0,3.83-0.36,4.83-1.08s1.5-1.7,1.5-2.93
			c0-0.7-0.2-1.32-0.6-1.86s-1.07-1.06-2-1.57s-2.23-1.07-3.89-1.68c-1.64-0.62-3.06-1.25-4.25-1.86s-2.12-1.37-2.77-2.26
			s-0.97-2.05-0.97-3.47c0-2.17,0.88-3.84,2.64-5s4.07-1.75,6.93-1.75c1.55,0,3,0.15,4.35,0.46s2.61,0.71,3.79,1.23l-1.31,3.12
			c-1.06-0.45-2.2-0.84-3.4-1.15s-2.43-0.47-3.68-0.47c-1.8,0-3.18,0.3-4.14,0.89s-1.44,1.41-1.44,2.44c0,0.8,0.22,1.45,0.67,1.97
			s1.16,1,2.14,1.45s2.28,0.98,3.89,1.59c1.61,0.59,3,1.21,4.17,1.84s2.07,1.4,2.71,2.3S222.76,248.7,222.76,250.11z"/>
		<path d="M238.9,230.99c2.19,0,4.06,0.48,5.62,1.45s2.76,2.32,3.59,4.07s1.24,3.78,1.24,6.11v2.41h-17.74
			c0.05,3.02,0.8,5.31,2.25,6.89s3.5,2.37,6.14,2.37c1.62,0,3.06-0.15,4.31-0.45s2.55-0.73,3.89-1.31v3.42
			c-1.3,0.58-2.58,1-3.86,1.27s-2.78,0.4-4.51,0.4c-2.47,0-4.62-0.5-6.46-1.51s-3.26-2.49-4.28-4.44s-1.52-4.34-1.52-7.17
			c0-2.77,0.46-5.16,1.39-7.18s2.24-3.58,3.94-4.68S236.61,230.99,238.9,230.99z M238.86,234.17c-2.08,0-3.73,0.68-4.97,2.04
			s-1.97,3.26-2.2,5.7h13.59c-0.02-1.53-0.25-2.88-0.71-4.04s-1.16-2.07-2.1-2.72S240.33,234.17,238.86,234.17z"/>
		<path d="M267.64,230.99c0.52,0,1.05,0.03,1.62,0.08s1.06,0.13,1.5,0.22l-0.49,3.61c-0.42-0.11-0.89-0.2-1.41-0.26
			s-1-0.09-1.45-0.09c-1.03,0-2,0.21-2.92,0.62s-1.71,1.01-2.4,1.78s-1.23,1.7-1.62,2.79s-0.59,2.29-0.59,3.62v13.78h-3.91v-25.69
			h3.23l0.42,4.73h0.16c0.53-0.95,1.17-1.82,1.92-2.61s1.62-1.42,2.61-1.89S266.42,230.99,267.64,230.99z"/>
		<path d="M281.23,257.14l-9.75-25.69h4.17l5.65,15.54c0.39,1.06,0.79,2.23,1.2,3.52s0.69,2.31,0.84,3.09h0.16
			c0.19-0.78,0.5-1.82,0.94-3.11s0.84-2.46,1.2-3.5l5.65-15.54h4.17l-9.77,25.69H281.23z"/>
		<path d="M301.55,221.84c0.64,0,1.19,0.21,1.65,0.62s0.69,1.06,0.69,1.93c0,0.86-0.23,1.5-0.69,1.92s-1.01,0.63-1.65,0.63
			c-0.67,0-1.23-0.21-1.68-0.63s-0.67-1.06-0.67-1.92c0-0.88,0.22-1.52,0.67-1.93S300.88,221.84,301.55,221.84z M303.45,231.45
			v25.69h-3.89v-25.69H303.45z"/>
		<path d="M321.97,257.61c-2.31,0-4.35-0.48-6.12-1.43s-3.14-2.41-4.12-4.36s-1.48-4.41-1.48-7.38c0-3.11,0.52-5.65,1.56-7.63
			s2.47-3.44,4.3-4.39s3.91-1.43,6.23-1.43c1.28,0,2.52,0.13,3.71,0.39s2.18,0.58,2.94,0.97l-1.17,3.26
			c-0.78-0.31-1.68-0.59-2.71-0.84s-1.98-0.38-2.87-0.38c-1.78,0-3.26,0.38-4.44,1.15s-2.06,1.89-2.65,3.38s-0.88,3.31-0.88,5.48
			c0,2.08,0.29,3.85,0.86,5.32s1.42,2.59,2.55,3.36s2.55,1.16,4.25,1.16c1.36,0,2.59-0.14,3.68-0.43s2.09-0.63,2.98-1.02v3.47
			c-0.86,0.44-1.82,0.77-2.87,1.01S323.42,257.61,321.97,257.61z"/>
		<path d="M344.56,230.99c2.19,0,4.06,0.48,5.62,1.45s2.76,2.32,3.59,4.07s1.24,3.78,1.24,6.11v2.41h-17.74
			c0.05,3.02,0.8,5.31,2.25,6.89s3.5,2.37,6.14,2.37c1.62,0,3.06-0.15,4.31-0.45s2.55-0.73,3.89-1.31v3.42
			c-1.3,0.58-2.58,1-3.86,1.27s-2.78,0.4-4.51,0.4c-2.47,0-4.62-0.5-6.46-1.51s-3.26-2.49-4.28-4.44s-1.52-4.34-1.52-7.17
			c0-2.77,0.46-5.16,1.39-7.18s2.24-3.58,3.94-4.68S342.26,230.99,344.56,230.99z M344.51,234.17c-2.08,0-3.73,0.68-4.97,2.04
			s-1.97,3.26-2.2,5.7h13.59c-0.02-1.53-0.25-2.88-0.71-4.04s-1.16-2.07-2.1-2.72S345.98,234.17,344.51,234.17z"/>
		<path d="M378.24,250.11c0,1.64-0.41,3.02-1.23,4.14s-1.99,1.96-3.52,2.52s-3.34,0.84-5.45,0.84c-1.8,0-3.35-0.14-4.66-0.42
			s-2.46-0.68-3.45-1.2v-3.59c1.05,0.52,2.3,0.98,3.75,1.41s2.94,0.63,4.45,0.63c2.22,0,3.83-0.36,4.83-1.08s1.5-1.7,1.5-2.93
			c0-0.7-0.2-1.32-0.6-1.86s-1.07-1.06-2-1.57s-2.23-1.07-3.89-1.68c-1.64-0.62-3.06-1.25-4.25-1.86s-2.12-1.37-2.77-2.26
			s-0.97-2.05-0.97-3.47c0-2.17,0.88-3.84,2.64-5s4.07-1.75,6.93-1.75c1.55,0,3,0.15,4.35,0.46s2.61,0.71,3.79,1.23l-1.31,3.12
			c-1.06-0.45-2.2-0.84-3.4-1.15s-2.43-0.47-3.68-0.47c-1.8,0-3.18,0.3-4.14,0.89s-1.44,1.41-1.44,2.44c0,0.8,0.22,1.45,0.67,1.97
			s1.16,1,2.14,1.45s2.28,0.98,3.89,1.59c1.61,0.59,3,1.21,4.17,1.84s2.07,1.4,2.71,2.3S378.24,248.7,378.24,250.11z"/>
		<path d="M398.96,221.84c0.64,0,1.19,0.21,1.65,0.62s0.69,1.06,0.69,1.93c0,0.86-0.23,1.5-0.69,1.92s-1.01,0.63-1.65,0.63
			c-0.67,0-1.23-0.21-1.68-0.63s-0.67-1.06-0.67-1.92c0-0.88,0.22-1.52,0.67-1.93S398.29,221.84,398.96,221.84z M400.86,231.45
			v25.69h-3.89v-25.69H400.86z"/>
		<path d="M421.25,230.99c3.05,0,5.35,0.75,6.91,2.24s2.34,3.89,2.34,7.18v16.73h-3.84v-16.48c0-2.14-0.49-3.74-1.46-4.8
			s-2.47-1.59-4.49-1.59c-2.84,0-4.84,0.8-6,2.41s-1.73,3.95-1.73,7.01v13.45h-3.89v-25.69h3.14l0.59,3.7h0.21
			c0.55-0.91,1.24-1.67,2.09-2.29s1.79-1.09,2.84-1.41S420.09,230.99,421.25,230.99z"/>
		<path d="M449.96,234.5h-6.4v22.64h-3.89V234.5h-4.55v-1.88l4.55-1.29v-1.71c0-2.16,0.32-3.91,0.96-5.26s1.57-2.35,2.79-2.99
			s2.7-0.96,4.45-0.96c0.98,0,1.89,0.09,2.71,0.26s1.54,0.37,2.17,0.59l-1.01,3.07c-0.53-0.17-1.13-0.33-1.79-0.48
			s-1.34-0.22-2.03-0.22c-1.48,0-2.58,0.48-3.29,1.44s-1.07,2.46-1.07,4.51v1.88h6.4V234.5z"/>
		<path d="M476.82,244.25c0,2.11-0.27,3.99-0.82,5.65s-1.34,3.05-2.37,4.2s-2.28,2.01-3.74,2.61s-3.11,0.9-4.96,0.9
			c-1.72,0-3.29-0.3-4.72-0.9s-2.66-1.47-3.7-2.61s-1.84-2.54-2.41-4.2s-0.86-3.54-0.86-5.65c0-2.81,0.48-5.21,1.43-7.18
			s2.32-3.48,4.09-4.52s3.89-1.56,6.34-1.56c2.34,0,4.39,0.52,6.15,1.57s3.12,2.56,4.1,4.54S476.82,241.45,476.82,244.25z
			 M457.27,244.25c0,2.06,0.27,3.85,0.82,5.37s1.39,2.69,2.53,3.52s2.61,1.24,4.41,1.24c1.78,0,3.25-0.41,4.39-1.24s2-2,2.54-3.52
			s0.82-3.3,0.82-5.37c0-2.05-0.27-3.82-0.82-5.31s-1.39-2.64-2.53-3.46s-2.62-1.22-4.43-1.22c-2.67,0-4.63,0.88-5.87,2.65
			S457.27,241.13,457.27,244.25z"/>
		<path d="M495.22,230.99c0.52,0,1.05,0.03,1.62,0.08s1.06,0.13,1.5,0.22l-0.49,3.61c-0.42-0.11-0.89-0.2-1.41-0.26
			s-1-0.09-1.45-0.09c-1.03,0-2,0.21-2.92,0.62s-1.71,1.01-2.4,1.78s-1.23,1.7-1.62,2.79s-0.59,2.29-0.59,3.62v13.78h-3.91v-25.69
			h3.23l0.42,4.73h0.16c0.53-0.95,1.17-1.82,1.92-2.61s1.62-1.42,2.61-1.89S494,230.99,495.22,230.99z"/>
		<path d="M531.05,230.99c2.83,0,4.96,0.74,6.4,2.21s2.16,3.85,2.16,7.11v16.83h-3.84V240.5c0-2.08-0.45-3.64-1.35-4.68
			s-2.23-1.56-4-1.56c-2.48,0-4.29,0.72-5.41,2.16s-1.69,3.55-1.69,6.35v14.37h-3.87V240.5c0-1.39-0.2-2.55-0.6-3.47
			s-0.99-1.61-1.78-2.07s-1.79-0.69-2.99-0.69c-1.7,0-3.07,0.35-4.1,1.05s-1.78,1.75-2.24,3.13s-0.69,3.08-0.69,5.1v13.59h-3.89
			v-25.69h3.14l0.59,3.63h0.21c0.52-0.89,1.16-1.64,1.95-2.25s1.66-1.07,2.62-1.38s2-0.47,3.09-0.47c1.95,0,3.59,0.36,4.91,1.09
			s2.28,1.83,2.87,3.32h0.21c0.84-1.48,2-2.59,3.47-3.32S529.3,230.99,531.05,230.99z"/>
		<path d="M557.21,231.03c3.06,0,5.34,0.69,6.82,2.06s2.23,3.57,2.23,6.59v17.46h-2.84l-0.75-3.8h-0.19
			c-0.72,0.94-1.47,1.72-2.25,2.36s-1.68,1.11-2.71,1.43s-2.28,0.48-3.76,0.48c-1.56,0-2.95-0.27-4.16-0.82s-2.16-1.38-2.86-2.48
			s-1.04-2.52-1.04-4.22c0-2.56,1.02-4.53,3.05-5.91s5.12-2.12,9.28-2.25l4.43-0.19v-1.57c0-2.22-0.48-3.77-1.43-4.66
			s-2.3-1.34-4.03-1.34c-1.34,0-2.62,0.2-3.84,0.59s-2.38,0.85-3.47,1.38l-1.2-2.95c1.16-0.59,2.48-1.1,3.98-1.52
			S555.55,231.03,557.21,231.03z M562.41,244.49l-3.91,0.16c-3.2,0.12-5.46,0.65-6.77,1.57s-1.97,2.23-1.97,3.91
			c0,1.47,0.45,2.55,1.34,3.26s2.07,1.05,3.54,1.05c2.28,0,4.15-0.63,5.6-1.9s2.18-3.16,2.18-5.7V244.49z"/>
		<path d="M582.57,254.42c0.64,0,1.3-0.05,1.97-0.16s1.22-0.24,1.64-0.4v3.02c-0.45,0.2-1.08,0.38-1.89,0.52s-1.59,0.21-2.36,0.21
			c-1.36,0-2.59-0.24-3.7-0.71s-2-1.29-2.66-2.43s-1-2.72-1-4.73V234.5h-3.66v-1.9l3.68-1.52l1.55-5.58h2.34v5.95h7.52v3.05h-7.52
			v15.12c0,1.61,0.37,2.81,1.11,3.61S581.33,254.42,582.57,254.42z"/>
		<path d="M593.37,221.84c0.64,0,1.19,0.21,1.65,0.62s0.69,1.06,0.69,1.93c0,0.86-0.23,1.5-0.69,1.92s-1.01,0.63-1.65,0.63
			c-0.67,0-1.23-0.21-1.68-0.63s-0.67-1.06-0.67-1.92c0-0.88,0.22-1.52,0.67-1.93S592.7,221.84,593.37,221.84z M595.27,231.45v25.69
			h-3.89v-25.69H595.27z"/>
		<path d="M620.72,268.63v-11.02c0-0.61,0.02-1.31,0.05-2.11s0.09-1.48,0.16-2.06h-0.26c-0.72,1.19-1.74,2.18-3.07,2.98
			s-3.04,1.2-5.13,1.2c-3.14,0-5.66-1.11-7.57-3.33s-2.86-5.53-2.86-9.94c0-2.89,0.44-5.33,1.31-7.31s2.11-3.49,3.71-4.51
			s3.47-1.54,5.61-1.54c2.05,0,3.72,0.4,5.02,1.21s2.31,1.79,3.05,2.94h0.19l0.59-3.68h3.09v37.17H620.72z M613.2,254.38
			c1.81,0,3.27-0.34,4.36-1.02s1.89-1.71,2.4-3.08s0.78-3.09,0.81-5.13v-0.82c0-3.31-0.56-5.82-1.69-7.54s-3.09-2.57-5.88-2.57
			c-2.41,0-4.2,0.92-5.37,2.75s-1.76,4.32-1.76,7.46s0.59,5.58,1.76,7.32S610.79,254.38,613.2,254.38z"/>
		<path d="M654.08,231.45v25.69h-3.19l-0.56-3.61h-0.21c-0.53,0.89-1.22,1.64-2.06,2.25s-1.79,1.07-2.85,1.37s-2.18,0.46-3.36,0.46
			c-2.03,0-3.73-0.33-5.11-0.98s-2.41-1.67-3.11-3.05s-1.04-3.14-1.04-5.3v-16.83h3.94V248c0,2.14,0.48,3.74,1.45,4.79
			s2.45,1.58,4.43,1.58c1.91,0,3.43-0.36,4.56-1.08s1.95-1.78,2.45-3.18s0.75-3.11,0.75-5.14v-13.52H654.08z"/>
		<path d="M672.19,230.99c2.19,0,4.06,0.48,5.62,1.45s2.76,2.32,3.59,4.07s1.24,3.78,1.24,6.11v2.41H664.9
			c0.05,3.02,0.8,5.31,2.25,6.89s3.5,2.37,6.14,2.37c1.62,0,3.06-0.15,4.31-0.45s2.55-0.73,3.89-1.31v3.42
			c-1.3,0.58-2.58,1-3.86,1.27s-2.78,0.4-4.51,0.4c-2.47,0-4.62-0.5-6.46-1.51s-3.26-2.49-4.28-4.44s-1.52-4.34-1.52-7.17
			c0-2.77,0.46-5.16,1.39-7.18s2.24-3.58,3.94-4.68S669.9,230.99,672.19,230.99z M672.15,234.17c-2.08,0-3.73,0.68-4.97,2.04
			s-1.97,3.26-2.2,5.7h13.59c-0.02-1.53-0.25-2.88-0.71-4.04s-1.16-2.07-2.1-2.72S673.62,234.17,672.15,234.17z"/>
		<path d="M705.87,250.11c0,1.64-0.41,3.02-1.23,4.14s-1.99,1.96-3.52,2.52s-3.34,0.84-5.45,0.84c-1.8,0-3.35-0.14-4.66-0.42
			s-2.46-0.68-3.45-1.2v-3.59c1.05,0.52,2.3,0.98,3.75,1.41s2.94,0.63,4.45,0.63c2.22,0,3.83-0.36,4.83-1.08s1.5-1.7,1.5-2.93
			c0-0.7-0.2-1.32-0.6-1.86s-1.07-1.06-2-1.57s-2.23-1.07-3.89-1.68c-1.64-0.62-3.06-1.25-4.25-1.86s-2.12-1.37-2.77-2.26
			s-0.97-2.05-0.97-3.47c0-2.17,0.88-3.84,2.64-5s4.07-1.75,6.93-1.75c1.55,0,3,0.15,4.35,0.46s2.61,0.71,3.79,1.23l-1.31,3.12
			c-1.06-0.45-2.2-0.84-3.4-1.15s-2.43-0.47-3.68-0.47c-1.8,0-3.18,0.3-4.14,0.89s-1.44,1.41-1.44,2.44c0,0.8,0.22,1.45,0.67,1.97
			s1.16,1,2.14,1.45s2.28,0.98,3.89,1.59c1.61,0.59,3,1.21,4.17,1.84s2.07,1.4,2.71,2.3S705.87,248.7,705.87,250.11z"/>
	</g>
</g>
<g>
	<line class="st1" x1="206.41" y1="342.01" x2="646.56" y2="342.01"/>
	<path class="st1" d="M646.56,432.2"/>
	<path class="st1" d="M206.41,432.2"/>
</g>
<line class="st1" x1="206.41" y1="405.67" x2="646.56" y2="405.67"/>
<g>
	<g>
		<path class="st0" d="M220.5,362c2.11,0,3.85,0.26,5.23,0.78s2.41,1.32,3.08,2.38s1.02,2.43,1.02,4.08c0,1.36-0.25,2.49-0.74,3.4
			s-1.14,1.64-1.93,2.21s-1.65,1-2.55,1.3l7.05,11.55h-3.48l-6.29-10.72h-5.34v10.72h-2.99V362H220.5z M220.32,364.58h-3.78v9.86
			h4.08c2.1,0,3.64-0.43,4.63-1.28s1.49-2.12,1.49-3.78c0-1.75-0.52-2.98-1.57-3.71S222.5,364.58,220.32,364.58z"/>
		<path class="st0" d="M251.24,368.43v19.27h-2.39l-0.42-2.71h-0.16c-0.4,0.67-0.91,1.23-1.55,1.69s-1.34,0.8-2.14,1.03
			s-1.63,0.34-2.52,0.34c-1.52,0-2.8-0.25-3.83-0.74s-1.81-1.25-2.33-2.29s-0.78-2.36-0.78-3.97v-12.62h2.95v12.41
			c0,1.61,0.36,2.8,1.09,3.59s1.83,1.19,3.32,1.19c1.43,0,2.57-0.27,3.42-0.81s1.46-1.33,1.84-2.38s0.56-2.33,0.56-3.86v-10.14
			H251.24z"/>
		<path class="st0" d="M260.33,360.35v6.84c0,0.79-0.02,1.55-0.06,2.29s-0.07,1.31-0.1,1.72h0.16c0.53-0.87,1.29-1.6,2.29-2.2
			s2.27-0.9,3.81-0.9c2.41,0,4.34,0.83,5.77,2.5s2.15,4.15,2.15,7.44c0,2.17-0.33,4-0.98,5.48s-1.58,2.61-2.78,3.38
			s-2.61,1.14-4.24,1.14c-1.52,0-2.77-0.28-3.75-0.85s-1.73-1.26-2.26-2.08h-0.23l-0.6,2.58h-2.11v-27.35H260.33z M265.96,370.54
			c-1.39,0-2.5,0.27-3.32,0.82s-1.41,1.37-1.77,2.46s-0.54,2.48-0.54,4.16v0.16c0,2.43,0.4,4.28,1.21,5.56s2.28,1.92,4.41,1.92
			c1.79,0,3.14-0.66,4.03-1.97s1.34-3.19,1.34-5.62c0-2.48-0.44-4.35-1.33-5.61S267.77,370.54,265.96,370.54z"/>
		<path class="st0" d="M288.19,368.08c0.39,0,0.79,0.02,1.21,0.06s0.8,0.1,1.12,0.17l-0.37,2.71c-0.32-0.08-0.67-0.15-1.05-0.19
			s-0.75-0.07-1.09-0.07c-0.77,0-1.5,0.16-2.19,0.47s-1.29,0.76-1.8,1.34s-0.92,1.28-1.21,2.09s-0.44,1.72-0.44,2.72v10.34h-2.94
			v-19.27h2.43l0.32,3.55h0.12c0.4-0.71,0.88-1.37,1.44-1.96s1.22-1.06,1.96-1.42S287.28,368.08,288.19,368.08z"/>
		<path class="st0" d="M295.65,361.23c0.48,0,0.89,0.16,1.24,0.47s0.52,0.79,0.52,1.45c0,0.64-0.17,1.12-0.52,1.44
			s-0.76,0.47-1.24,0.47c-0.5,0-0.92-0.16-1.26-0.47s-0.5-0.8-0.5-1.44c0-0.66,0.17-1.14,0.5-1.45S295.14,361.23,295.65,361.23z
			 M297.07,368.43v19.27h-2.92v-19.27H297.07z"/>
		<path class="st0" d="M316.16,396.31v-8.26c0-0.46,0.01-0.98,0.04-1.58s0.06-1.11,0.12-1.55h-0.19c-0.54,0.89-1.31,1.63-2.3,2.23
			s-2.28,0.9-3.85,0.9c-2.36,0-4.25-0.83-5.68-2.5s-2.14-4.15-2.14-7.45c0-2.17,0.33-4,0.98-5.48s1.58-2.62,2.79-3.38
			s2.6-1.15,4.21-1.15c1.54,0,2.79,0.3,3.76,0.91s1.73,1.34,2.29,2.21h0.14l0.44-2.76h2.32v27.88H316.16z M310.52,385.63
			c1.36,0,2.45-0.25,3.27-0.76s1.42-1.28,1.8-2.31s0.58-2.31,0.61-3.85v-0.62c0-2.48-0.42-4.37-1.27-5.65s-2.31-1.92-4.41-1.92
			c-1.8,0-3.15,0.69-4.03,2.07s-1.32,3.24-1.32,5.6s0.44,4.19,1.32,5.49S308.71,385.63,310.52,385.63z"/>
		<path class="st0" d="M341.17,368.43v19.27h-2.39l-0.42-2.71h-0.16c-0.4,0.67-0.91,1.23-1.55,1.69s-1.34,0.8-2.14,1.03
			s-1.63,0.34-2.52,0.34c-1.52,0-2.8-0.25-3.83-0.74s-1.81-1.25-2.33-2.29s-0.78-2.36-0.78-3.97v-12.62h2.95v12.41
			c0,1.61,0.36,2.8,1.09,3.59s1.83,1.19,3.32,1.19c1.43,0,2.57-0.27,3.42-0.81s1.46-1.33,1.84-2.38s0.56-2.33,0.56-3.86v-10.14
			H341.17z"/>
		<path class="st0" d="M354.76,368.08c1.64,0,3.05,0.36,4.22,1.09s2.07,1.74,2.69,3.05s0.93,2.83,0.93,4.58v1.81h-13.31
			c0.04,2.26,0.6,3.98,1.69,5.17s2.62,1.78,4.61,1.78c1.22,0,2.3-0.11,3.23-0.33s1.91-0.55,2.92-0.98v2.57
			c-0.97,0.43-1.94,0.75-2.89,0.95s-2.08,0.3-3.38,0.3c-1.85,0-3.47-0.38-4.84-1.13s-2.45-1.87-3.21-3.33s-1.14-3.26-1.14-5.38
			c0-2.07,0.35-3.87,1.05-5.39s1.68-2.69,2.95-3.51S353.04,368.08,354.76,368.08z M354.73,370.47c-1.56,0-2.8,0.51-3.73,1.53
			s-1.48,2.44-1.65,4.27h10.2c-0.01-1.15-0.19-2.16-0.54-3.03s-0.87-1.55-1.57-2.04S355.83,370.47,354.73,370.47z"/>
	</g>
</g>
<rect x="1105.05" y="536.72" class="st0" width="94.95" height="35.62"/>
</svg>
